<svg width="24" height="24" viewBox="0 0 24 24" fill="none" xmlns="http://www.w3.org/2000/svg">
<path d="M16.1785 22.5H12V20.3573C12.0007 20.1592 11.9612 19.963 11.8839 19.7805C11.8067 19.598 11.6932 19.4331 11.5505 19.2956C11.191 18.9413 10.6678 18.742 10.1175 18.75C9.62799 18.7546 9.15576 18.9317 8.78393 19.2502C8.54018 19.4658 8.25002 19.8389 8.25002 20.3948V22.5H4.10721C3.41597 22.4993 2.75325 22.2243 2.26447 21.7356C1.77569 21.2468 1.50076 20.5841 1.50002 19.8928V15.75H3.64268C4.07205 15.75 4.48971 15.5663 4.81877 15.2344C5.00184 15.0498 5.14661 14.8309 5.24476 14.5902C5.3429 14.3495 5.39248 14.0918 5.39064 13.8319C5.37658 12.8386 4.55908 12 3.60518 12H1.50002V7.81219C1.49867 7.47088 1.56665 7.13286 1.69984 6.81861C1.83303 6.50436 2.02866 6.22044 2.27486 5.98406C2.76655 5.5098 3.42407 5.24638 4.10721 5.25H7.07158V4.57125C7.07158 4.16333 7.15283 3.75949 7.31059 3.38331C7.46834 3.00713 7.69945 2.66614 7.99041 2.38024C8.28137 2.09434 8.62637 1.86925 9.00526 1.71812C9.38415 1.56699 9.78935 1.49284 10.1972 1.5C11.8608 1.52906 13.2141 2.92406 13.2141 4.60922V5.25H16.1785C16.5172 5.24636 16.8532 5.31039 17.1668 5.43834C17.4805 5.56628 17.7654 5.75556 18.0049 5.99508C18.2445 6.2346 18.4337 6.51954 18.5617 6.83318C18.6896 7.14682 18.7537 7.48285 18.75 7.82156V10.7859H19.3903C21.105 10.7859 22.5 12.1453 22.5 13.8159C22.5 15.532 21.1224 16.9284 19.4288 16.9284H18.75V19.8928C18.75 21.3305 17.5964 22.5 16.1785 22.5Z" fill="#79EFE6"/>
</svg>
