<svg width="24" height="24" viewBox="0 0 24 24" fill="none" xmlns="http://www.w3.org/2000/svg">
<path d="M6.35 15.35L4.25 13.2C5.23333 12.2167 6.38767 11.4377 7.713 10.863C9.03833 10.2883 10.4673 10.0007 12 10C13.5333 10 14.9627 10.2917 16.288 10.875C17.6133 11.4583 18.7673 12.25 19.75 13.25L17.65 15.35C16.9167 14.6167 16.0667 14.0417 15.1 13.625C14.1333 13.2083 13.1 13 12 13C10.9 13 9.86667 13.2083 8.9 13.625C7.93333 14.0417 7.08333 14.6167 6.35 15.35ZM2.1 11.1L0 9C1.53333 7.43333 3.325 6.20833 5.375 5.325C7.425 4.44167 9.63333 4 12 4C14.3667 4 16.575 4.44167 18.625 5.325C20.675 6.20833 22.4667 7.43333 24 9L21.9 11.1C20.6167 9.81667 19.129 8.81233 17.437 8.087C15.745 7.36167 13.9327 6.99933 12 7C10.0667 7 8.254 7.36267 6.562 8.088C4.87 8.81333 3.38267 9.81733 2.1 11.1ZM12 21L15.525 17.45C15.075 17 14.55 16.6457 13.95 16.387C13.35 16.1283 12.7 15.9993 12 16C11.3 16 10.65 16.1293 10.05 16.388C9.45 16.6467 8.925 17.0007 8.475 17.45L12 21Z" fill="#79F1E8"/>
</svg>
