<svg width="360" height="444" viewBox="0 0 360 444" fill="none" xmlns="http://www.w3.org/2000/svg">
<g id="Illustration">
<path id="Vector" opacity="0.07" d="M359.48 223.317C353.223 219.665 348.691 219.566 345.883 223.021C343.075 226.426 341.695 232.199 341.695 240.342V284.212C341.695 292.552 340.907 299.46 339.38 304.938C337.853 310.613 335.242 314.66 331.646 317.028C328.148 319.446 323.418 320.088 317.408 318.953C311.546 317.867 304.205 314.808 295.436 309.725L291.249 307.307V272.763L296.471 275.774C302.728 279.425 306.915 279.869 309.033 277.205C311.25 274.639 312.383 269.26 312.383 261.117V222.478C312.383 212.411 313.369 204.466 315.339 198.594C317.31 192.721 321.202 189.02 327.064 187.342C321.202 178.904 317.31 170.663 315.339 162.57C313.369 154.477 312.433 145.397 312.433 135.33V96.6906C312.433 88.5482 311.3 81.9356 309.083 76.7541C307.014 71.6713 302.826 67.3287 296.52 63.6769L291.298 60.6667V26.1233L295.486 28.5413C304.255 33.6241 311.595 39.0031 317.458 44.7274C323.468 50.5011 328.197 56.6695 331.695 63.1341C335.34 69.6973 337.902 76.7047 339.429 84.1562C340.956 91.4104 341.745 99.2566 341.745 107.547V151.417C341.745 159.56 343.124 166.962 345.932 173.574C348.74 180.236 353.272 185.368 359.529 188.971L359.48 223.317Z" fill="url(#paint0_linear_25_29)"/>
<path id="Vector_2" opacity="0.07" d="M200.603 96.2464C206.86 99.8982 211.392 99.9969 214.2 96.5425C217.008 93.1375 218.387 87.3638 218.387 79.2215V35.3513C218.387 27.0115 219.176 20.1029 220.703 14.6253C222.23 8.95027 224.742 4.85441 228.24 2.43637C231.886 0.0676768 236.615 -0.573844 242.477 0.511807C248.488 1.6468 255.877 4.75571 264.646 9.83853L268.834 12.2566V46.8L263.612 43.7898C257.355 40.138 253.069 39.6446 250.852 42.2106C248.783 44.8754 247.699 50.2543 247.699 58.3967V97.036C247.699 107.103 246.714 115.048 244.744 120.92C242.773 126.743 238.881 130.494 233.019 132.172C238.881 140.61 242.773 148.851 244.744 156.944C246.714 165.037 247.65 174.117 247.65 184.184V222.823C247.65 230.966 248.685 237.578 250.803 242.661C253.02 247.843 257.306 252.235 263.562 255.837L268.784 258.847V293.391L264.597 290.973C255.828 285.89 248.438 280.462 242.428 274.688C236.566 268.964 231.836 262.844 228.191 256.281C224.693 249.817 222.181 242.859 220.653 235.358C219.126 228.104 218.338 220.257 218.338 211.967V168.097C218.338 159.954 216.959 152.552 214.151 145.94C211.343 139.278 206.81 134.145 200.554 130.543L200.603 96.2464Z" fill="url(#paint1_linear_25_29)"/>
<path id="colchete2" opacity="0.4" d="M339.774 238.121C333.518 234.469 328.985 234.371 326.177 237.825C323.369 241.23 321.99 247.004 321.99 255.146V299.016C321.99 307.356 321.202 314.265 319.674 319.742C318.147 325.417 315.536 329.464 311.94 331.832C308.442 334.25 303.713 334.892 297.703 333.757C291.84 332.671 284.5 329.612 275.731 324.529L271.543 322.111V287.568L276.765 290.578C283.022 294.229 287.209 294.674 289.328 292.009C291.545 289.443 292.678 284.064 292.678 275.921V237.282C292.678 227.215 293.663 219.27 295.634 213.398C297.604 207.525 301.496 203.824 307.358 202.147C301.496 193.708 297.604 185.467 295.634 177.374C293.663 169.281 292.727 160.201 292.727 150.134V111.495C292.727 103.352 291.594 96.7398 289.377 91.5583C287.308 86.4755 283.121 82.1329 276.815 78.4811L271.593 75.4709V40.9275L275.78 43.3455C284.549 48.4283 291.89 53.8073 297.752 59.5316C303.762 65.3053 308.491 71.4737 311.989 77.9383C315.635 84.5015 318.197 91.5089 319.724 98.9604C321.251 106.215 322.039 114.061 322.039 122.351V166.221C322.039 174.364 323.419 181.766 326.227 188.379C329.035 195.041 333.567 200.173 339.823 203.775L339.774 238.121Z" fill="url(#paint2_linear_25_29)"/>
<path id="colchete1" opacity="0.4" d="M180.897 111.051C187.154 114.702 191.686 114.801 194.494 111.347C197.302 107.942 198.682 102.168 198.682 94.0257V50.1555C198.682 41.8157 199.47 34.9071 200.997 29.4295C202.524 23.7545 205.037 19.6586 208.535 17.2406C212.18 14.8719 216.909 14.2304 222.772 15.316C228.782 16.451 236.172 19.5599 244.941 24.6427L249.128 27.0608V61.6042L243.906 58.594C237.65 54.9422 233.364 54.4488 231.147 57.0148C229.078 59.6796 227.994 65.0585 227.994 73.2009V111.84C227.994 121.907 227.009 129.852 225.038 135.724C223.067 141.548 219.176 145.298 213.313 146.976C219.176 155.414 223.067 163.655 225.038 171.748C227.009 179.841 227.945 188.921 227.945 198.988V237.628C227.945 245.77 228.979 252.383 231.097 257.465C233.314 262.647 237.6 267.039 243.857 270.641L249.079 273.651V308.195L244.891 305.777C236.122 300.694 228.733 295.266 222.723 289.492C216.86 283.768 212.131 277.649 208.485 271.085C204.988 264.621 202.475 257.663 200.948 250.162C199.421 242.908 198.632 235.062 198.632 226.771V182.901C198.632 174.759 197.253 167.356 194.445 160.744C191.637 154.082 187.105 148.95 180.848 145.347L180.897 111.051Z" fill="url(#paint3_linear_25_29)"/>
<path id="Vector_3" opacity="0.15" d="M71.5312 6.03882L155.723 54.745L155.674 256.725L71.4819 208.019L71.5312 6.03882Z" fill="url(#paint4_linear_25_29)"/>
<path id="blue_line1" d="M55.7178 37.0784L122.668 75.8164V94.4205L55.7178 55.6825V37.0784Z" fill="#77EEE7"/>
<path id="label4" opacity="0.15" d="M81.9263 117.812L146.265 155.02V183.938L81.9263 146.729V117.812Z" fill="white"/>
<path id="label6" opacity="0.15" d="M81.877 82.824L146.314 120.082V126.793L81.877 89.5846V82.824Z" fill="white"/>
<path id="label5" opacity="0.15" d="M81.877 95.9502L137.595 128.174V134.886L81.877 102.661V95.9502Z" fill="white"/>
<path id="Vector_4" opacity="0.2" d="M71.5317 6.03882L155.724 54.745V81.837L71.5317 33.1307V6.03882Z" fill="url(#paint5_linear_25_29)"/>
<path id="Vector_5" opacity="0.2" d="M92.5673 31.8971C92.5673 35.993 90.1533 37.9176 87.1975 36.2397C84.2416 34.5126 81.877 29.8245 81.877 25.7287C81.877 21.6328 84.2909 19.7082 87.2467 21.3861C90.1533 23.1132 92.5673 27.8013 92.5673 31.8971Z" fill="white"/>
<path id="Vector_6" opacity="0.15" d="M174.986 193.313L259.179 242.02L259.129 444L174.937 395.294L174.986 193.313Z" fill="url(#paint6_linear_25_29)"/>
<path id="blue_line2" d="M207.057 252.087L274.007 290.775V309.33L207.008 270.641L207.057 252.087Z" fill="#77EEE7"/>
<path id="label9" opacity="0.15" d="M185.381 271.283L249.769 308.54V337.409L185.381 300.151V271.283Z" fill="white"/>
<path id="label8" opacity="0.15" d="M185.282 312.538L249.72 349.795V356.506L185.282 319.298V312.538Z" fill="white"/>
<path id="label7" opacity="0.15" d="M185.282 324.677L241 356.901V363.613L185.282 331.389V324.677Z" fill="white"/>
<path id="Vector_7" opacity="0.2" d="M174.986 193.313L259.178 242.02V269.112L174.986 220.405V193.313Z" fill="url(#paint7_linear_25_29)"/>
<path id="Vector_8" opacity="0.2" d="M196.022 219.221C196.022 223.317 193.608 225.242 190.652 223.564C187.696 221.837 185.332 217.149 185.332 213.053C185.332 208.957 187.745 207.032 190.701 208.71C193.608 210.388 196.022 215.125 196.022 219.221Z" fill="white"/>
<path id="Vector_9" opacity="0.3" d="M160.404 221.294L13.8433 136.563L13.8925 213.102L147.546 290.38L160.502 309.577L160.404 221.294Z" fill="url(#paint8_linear_25_29)"/>
<path id="label3" opacity="0.15" d="M122.717 218.135L90.5967 199.581V206.292L122.717 224.847V218.135Z" fill="white"/>
<path id="label2" opacity="0.15" d="M122.717 231.607L43.2046 185.615V192.327L122.766 238.319L122.717 231.607Z" fill="white"/>
<path id="label1" opacity="0.15" d="M122.766 245.079L26.7505 189.563V196.274L122.766 251.791V245.079Z" fill="white"/>
<path id="Vector_10" d="M130.648 229.732C130.648 236.048 134.393 243.303 138.974 245.967C143.556 248.632 147.3 245.671 147.3 239.355C147.3 233.038 143.556 225.784 138.974 223.119C134.343 220.455 130.648 223.415 130.648 229.732Z" fill="#77EEE7"/>
<path id="Vector_11" opacity="0.15" d="M28.327 82.8238L8.91699 71.5725V65.0093L28.327 76.2606C29.9035 77.1982 32.2189 79.024 34.1894 81.8862C36.3078 84.9458 37.835 88.7949 37.835 92.9894C37.835 97.6281 36.6527 100.244 34.4358 101.033C32.3174 101.724 29.8542 100.54 28.327 99.6514L20.3463 95.0127L20.297 94.9634C19.6073 94.5686 18.5235 94.1738 17.686 94.4205C16.9963 94.6179 16.1588 95.3581 16.1588 97.9242C16.1588 100.49 16.947 102.069 17.6367 103.007C18.4742 104.191 19.558 105.03 20.2477 105.376L20.3463 105.425L44.7812 119.539V126.102L20.494 112.038C18.8191 111.149 16.4051 109.324 14.336 106.412C12.0699 103.204 10.4934 99.1579 10.4934 94.6179C10.4934 90.1273 12.0699 87.8079 14.2868 87.1664C16.3559 86.5742 18.7698 87.4625 20.4448 88.4495L28.3763 93.0388C29.5094 93.6803 30.3961 93.9764 30.938 93.779C31.3814 93.631 32.1696 92.9895 32.1696 89.6832C32.1696 87.5119 31.4799 86.1301 30.7902 85.1432C30.002 84.0575 28.9675 83.1693 28.327 82.8238Z" fill="white"/>
<path id="Vector_12" d="M14.6807 72.2635C14.6807 77.8891 11.38 80.5046 7.34034 78.1852C3.30069 75.8659 0 69.4013 0 63.7757C0 58.15 3.30069 55.5346 7.34034 57.854C11.38 60.2227 14.6807 66.6872 14.6807 72.2635Z" fill="#77EEE7"/>
<path id="Vector_13" d="M53.5991 126.546C53.5991 132.172 50.2985 134.787 46.2588 132.468C42.2191 130.148 38.9185 123.684 38.9185 118.058C38.9185 112.433 42.2191 109.817 46.2588 112.136C50.2985 114.505 53.5991 120.97 53.5991 126.546Z" fill="#77EEE7"/>
<path id="Vector_14" opacity="0.2" d="M105.967 298.128C108.923 299.855 111.287 303.951 111.287 307.405V322.457L121.239 328.181C124.195 329.908 126.559 334.004 126.559 337.458C126.559 340.863 124.145 342.245 121.239 340.567L111.287 334.843V349.894C111.287 353.299 108.873 354.681 105.967 353.003C103.011 351.276 100.646 347.18 100.646 343.725V328.674L90.695 322.95C87.7392 321.223 85.3745 317.127 85.3745 313.673C85.3745 310.268 87.7884 308.886 90.695 310.564L100.646 316.288V301.237C100.646 297.783 103.011 296.401 105.967 298.128Z" fill="url(#paint9_linear_25_29)"/>
</g>
<defs>
<linearGradient id="paint0_linear_25_29" x1="390.474" y1="36.1007" x2="268.664" y2="246.857" gradientUnits="userSpaceOnUse">
<stop stop-color="white"/>
<stop offset="1" stop-color="white" stop-opacity="0"/>
</linearGradient>
<linearGradient id="paint1_linear_25_29" x1="332.052" y1="1.42316" x2="210.243" y2="212.18" gradientUnits="userSpaceOnUse">
<stop stop-color="white"/>
<stop offset="1" stop-color="white" stop-opacity="0"/>
</linearGradient>
<linearGradient id="paint2_linear_25_29" x1="370.768" y1="50.9049" x2="248.958" y2="261.662" gradientUnits="userSpaceOnUse">
<stop stop-color="white"/>
<stop offset="1" stop-color="white" stop-opacity="0"/>
</linearGradient>
<linearGradient id="paint3_linear_25_29" x1="312.347" y1="16.2273" x2="190.537" y2="226.984" gradientUnits="userSpaceOnUse">
<stop stop-color="white"/>
<stop offset="1" stop-color="white" stop-opacity="0"/>
</linearGradient>
<linearGradient id="paint4_linear_25_29" x1="157.251" y1="55.6103" x2="76.6135" y2="195.078" gradientUnits="userSpaceOnUse">
<stop stop-color="white"/>
<stop offset="1" stop-color="white" stop-opacity="0"/>
</linearGradient>
<linearGradient id="paint5_linear_25_29" x1="100.418" y1="6.45122" x2="126.12" y2="79.2006" gradientUnits="userSpaceOnUse">
<stop stop-color="white"/>
<stop offset="1" stop-color="white" stop-opacity="0"/>
</linearGradient>
<linearGradient id="paint6_linear_25_29" x1="260.702" y1="242.897" x2="180.065" y2="382.365" gradientUnits="userSpaceOnUse">
<stop stop-color="white"/>
<stop offset="1" stop-color="white" stop-opacity="0"/>
</linearGradient>
<linearGradient id="paint7_linear_25_29" x1="203.869" y1="193.738" x2="229.57" y2="266.488" gradientUnits="userSpaceOnUse">
<stop stop-color="white"/>
<stop offset="1" stop-color="white" stop-opacity="0"/>
</linearGradient>
<linearGradient id="paint8_linear_25_29" x1="128.447" y1="190.664" x2="52.655" y2="249.907" gradientUnits="userSpaceOnUse">
<stop stop-color="white"/>
<stop offset="1" stop-color="white" stop-opacity="0"/>
</linearGradient>
<linearGradient id="paint9_linear_25_29" x1="116.243" y1="317.355" x2="90.4088" y2="337.696" gradientUnits="userSpaceOnUse">
<stop stop-color="white"/>
<stop offset="1" stop-color="white" stop-opacity="0"/>
</linearGradient>
</defs>
</svg>
