<svg width="24" height="24" viewBox="0 0 24 24" fill="none" xmlns="http://www.w3.org/2000/svg">
<rect width="24" height="24" rx="12" fill="white"/>
<g clip-path="url(#clip0_13_130)">
<path d="M11.9999 14.9365C11.7482 14.9365 11.5307 14.7808 11.4461 14.5405C11.1211 13.6205 10.3795 12.8766 9.45942 12.5539C9.21911 12.4692 9.06348 12.2518 9.06348 12C9.06348 11.7482 9.21911 11.5308 9.45942 11.4461C10.3795 11.1211 11.1233 10.3796 11.4461 9.45948C11.5307 9.21917 11.7482 9.06354 11.9999 9.06354C12.2517 9.06354 12.4692 9.21917 12.5538 9.45948C12.8788 10.3796 13.6204 11.1234 14.5405 11.4461C14.7808 11.5308 14.9364 11.7482 14.9364 12C14.9364 12.2518 14.7808 12.4692 14.5405 12.5539C13.6204 12.8789 12.8766 13.6205 12.5538 14.5405C12.4692 14.7808 12.2517 14.9365 11.9999 14.9365Z" fill="#FF66CC"/>
<path d="M12.0003 17.5059C8.95944 17.5059 6.49437 15.0408 6.49437 12H5.76025C5.76025 15.4463 8.554 18.24 12.0003 18.24V17.5059ZM17.5061 12C17.5061 15.0408 15.0411 17.5059 12.0003 17.5059V18.24C15.4465 18.24 18.2403 15.4463 18.2403 12H17.5061ZM12.0003 6.49413C15.0411 6.49413 17.5061 8.9592 17.5061 12H18.2403C18.2403 8.55375 15.4465 5.76001 12.0003 5.76001V6.49413ZM12.0003 5.76001C8.554 5.76001 5.76025 8.55375 5.76025 12H6.49437C6.49437 8.9592 8.95944 6.49413 12.0003 6.49413V5.76001Z" fill="#FF66CC"/>
</g>
<defs>
<clipPath id="clip0_13_130">
<rect width="12.48" height="12.48" fill="white" transform="translate(5.76025 5.76001)"/>
</clipPath>
</defs>
</svg>
