<svg width="24" height="24" viewBox="0 0 24 24" fill="none" xmlns="http://www.w3.org/2000/svg">
<path d="M19 10C20.13 10 21.16 9.61 22 8.98V18C22 19.1 21.1 20 20 20H4C2.9 20 2 19.1 2 18V6C2 4.9 2.9 4 4 4H14.1C14.04 4.32 14 4.66 14 5C14 6.48 14.65 7.79 15.67 8.71L12 11L5.3 6.81C5.20546 6.74453 5.09863 6.69893 4.98595 6.67595C4.87328 6.65297 4.75712 6.65309 4.6445 6.6763C4.53187 6.69951 4.42513 6.74533 4.33073 6.811C4.23632 6.87666 4.15623 6.96079 4.09528 7.0583C4.03434 7.15581 3.99381 7.26468 3.97616 7.37831C3.9585 7.49194 3.96409 7.60796 3.99258 7.71937C4.02106 7.83078 4.07186 7.93525 4.14189 8.02645C4.21192 8.11766 4.29973 8.19371 4.4 8.25L11.47 12.67C11.79 12.87 12.21 12.87 12.53 12.67L17.3 9.69C17.84 9.88 18.4 10 19 10ZM16 5C16 6.66 17.34 8 19 8C20.66 8 22 6.66 22 5C22 3.34 20.66 2 19 2C17.34 2 16 3.34 16 5Z" fill="#79F1E8"/>
</svg>
