<svg width="24" height="24" viewBox="0 0 24 24" fill="none" xmlns="http://www.w3.org/2000/svg">
<g clip-path="url(#clip0_15_447)">
<path d="M12.1672 2.02783C10.8357 2.02783 9.51731 2.29008 8.2872 2.79961C7.0571 3.30913 5.9394 4.05595 4.99792 4.99743C3.09652 6.89884 2.02832 9.4777 2.02832 12.1667C2.02832 16.6481 4.93817 20.4501 8.9633 21.7986C9.47024 21.8797 9.63246 21.5654 9.63246 21.2917V19.5782C6.824 20.1865 6.22581 18.2196 6.22581 18.2196C5.75942 17.0435 5.10039 16.7292 5.10039 16.7292C4.17776 16.1006 5.17137 16.1208 5.17137 16.1208C6.18525 16.1918 6.72261 17.1651 6.72261 17.1651C7.60469 18.7062 9.0951 18.25 9.67302 18.0067C9.76427 17.3476 10.0279 16.9015 10.3118 16.6481C8.06094 16.3946 5.69859 15.5226 5.69859 11.6597C5.69859 10.5343 6.08386 9.63197 6.74289 8.91211C6.6415 8.65864 6.28664 7.6042 6.84428 6.23546C6.84428 6.23546 7.69594 5.96171 9.63246 7.26962C10.4334 7.04657 11.3054 6.93504 12.1672 6.93504C13.029 6.93504 13.9009 7.04657 14.7019 7.26962C16.6384 5.96171 17.4901 6.23546 17.4901 6.23546C18.0477 7.6042 17.6929 8.65864 17.5915 8.91211C18.2505 9.63197 18.6358 10.5343 18.6358 11.6597C18.6358 15.5328 16.2633 16.3845 14.0023 16.6379C14.3673 16.9522 14.7019 17.5707 14.7019 18.5136V21.2917C14.7019 21.5654 14.8641 21.8898 15.3812 21.7986C19.4063 20.44 22.306 16.6481 22.306 12.1667C22.306 10.8352 22.0438 9.51682 21.5343 8.28672C21.0247 7.05661 20.2779 5.93891 19.3364 4.99743C18.3949 4.05595 17.2773 3.30913 16.0471 2.79961C14.817 2.29008 13.4986 2.02783 12.1672 2.02783Z" fill="#79F1E8"/>
</g>
<defs>
<clipPath id="clip0_15_447">
<rect width="24" height="24" fill="white"/>
</clipPath>
</defs>
</svg>
