<svg width="24" height="24" viewBox="0 0 24 24" fill="none" xmlns="http://www.w3.org/2000/svg">
<path d="M19 11.95C19 10 18.3207 8.34568 16.962 6.98701C15.604 5.62901 13.95 4.95001 12 4.95001V2.95001C13.25 2.95001 14.421 3.18735 15.513 3.66201C16.6043 4.13735 17.5543 4.77935 18.363 5.58801C19.171 6.39601 19.8127 7.34601 20.288 8.43801C20.7627 9.52935 21 10.7 21 11.95H19ZM15 11.95C15 11.1167 14.7083 10.4083 14.125 9.82501C13.5417 9.24168 12.8333 8.95001 12 8.95001V6.95001C13.3833 6.95001 14.5627 7.43735 15.538 8.41201C16.5127 9.38735 17 10.5667 17 11.95H15ZM19.95 21C17.8 21 15.7043 20.525 13.663 19.575C11.621 18.625 9.81267 17.3583 8.238 15.775C6.66267 14.1917 5.396 12.379 4.438 10.337C3.47933 8.29568 3 6.20001 3 4.05001V3.52501C3 3.34168 3.01667 3.16668 3.05 3.00001H8.9L9.825 8.02501L6.975 10.9C7.675 12.1 8.55433 13.225 9.613 14.275C10.671 15.325 11.8333 16.2333 13.1 17L16 14.1L21 15.1V20.95C20.8333 20.9667 20.6583 20.9793 20.475 20.988C20.2917 20.996 20.1167 21 19.95 21Z" fill="#79F1E8"/>
</svg>
